<svg xmlns="http://www.w3.org/2000/svg" width="93.947" height="104" viewBox="0 0 93.947 104"><g transform="translate(0 -.022)"><path fill="#f9ab00" d="M1619.471,91.007A12.925,12.925,0,0,1,1606.614,104a12.362,12.362,0,0,1-1.591-.09,13.255,13.255,0,0,1-11.312-13.434V13.545A13.26,13.26,0,0,1,1605.044.111a12.909,12.909,0,0,1,14.426,12.9Z" data-name="Path 172" transform="translate(-1525.524)"/><path fill="#e37400" d="M12.882,955.144A12.882,12.882,0,1,1,0,968.026,12.882,12.882,0,0,1,12.882,955.144ZM46.775,916.1a13.256,13.256,0,0,0-12.527,13.545v34.6c0,9.391,4.133,15.09,10.187,16.3a12.9,12.9,0,0,0,15.209-10.084,12.61,12.61,0,0,0,.257-2.6V929.051A12.925,12.925,0,0,0,47,916.1C46.924,916.1,46.847,916.1,46.775,916.1Z" data-name="Path 173" transform="translate(0 -876.886)"/></g></svg>