<?xml version="1.0" encoding="UTF-8" standalone="no"?>
<!-- Created with Inkscape (http://www.inkscape.org/) -->

<svg
   xmlns:dc="http://purl.org/dc/elements/1.1/"
   xmlns:cc="http://creativecommons.org/ns#"
   xmlns:rdf="http://www.w3.org/1999/02/22-rdf-syntax-ns#"
   xmlns:svg="http://www.w3.org/2000/svg"
   xmlns="http://www.w3.org/2000/svg"
   xmlns:sodipodi="http://sodipodi.sourceforge.net/DTD/sodipodi-0.dtd"
   xmlns:inkscape="http://www.inkscape.org/namespaces/inkscape"
   version="1.1"
   id="svg2"
   xml:space="preserve"
   width="664.22266"
   height="589.38934"
   viewBox="0 0 664.22266 589.38934"
   sodipodi:docname="gtag.svgai.svg"
   inkscape:version="0.92.5 (2060ec1f9f, 2020-04-08)"><metadata
     id="metadata8"><rdf:RDF><cc:Work
         rdf:about=""><dc:format>image/svg+xml</dc:format><dc:type
           rdf:resource="http://purl.org/dc/dcmitype/StillImage" /><dc:title></dc:title></cc:Work></rdf:RDF></metadata><defs
     id="defs6"><clipPath
       clipPathUnits="userSpaceOnUse"
       id="clipPath18"><path
         d="M 0,442.042 H 498.167 V 0 H 0 Z"
         id="path16"
         inkscape:connector-curvature="0" /></clipPath><clipPath
       clipPathUnits="userSpaceOnUse"
       id="clipPath34"><path
         d="m 190.072,352.38 c 7.935,-33.292 36.4,-59.677 69.87,-62.017 v 0 c 13.066,-0.914 25.279,1.949 35.737,7.695 v 0 l 14.633,8.042 c -10.458,-5.747 -22.671,-8.609 -35.738,-7.696 v 0 c -33.469,2.341 -61.934,28.725 -69.869,62.017 v 0 z"
         id="path32"
         inkscape:connector-curvature="0" /></clipPath><clipPath
       clipPathUnits="userSpaceOnUse"
       id="clipPath62"><path
         d="M 0,442.042 H 498.167 V 0 H 0 Z"
         id="path60"
         inkscape:connector-curvature="0" /></clipPath><clipPath
       clipPathUnits="userSpaceOnUse"
       id="clipPath82"><path
         d="m 189.867,130.757 150.05,-10.492 -1.756,137.834 -150.049,10.493 z"
         id="path80"
         inkscape:connector-curvature="0" /></clipPath></defs><sodipodi:namedview
     pagecolor="#ffffff"
     bordercolor="#666666"
     borderopacity="1"
     objecttolerance="10"
     gridtolerance="10"
     guidetolerance="10"
     inkscape:pageopacity="0"
     inkscape:pageshadow="2"
     inkscape:window-width="1353"
     inkscape:window-height="780"
     id="namedview4"
     showgrid="false"
     inkscape:zoom="0.40041443"
     inkscape:cx="332.11133"
     inkscape:cy="294.69467"
     inkscape:window-x="0"
     inkscape:window-y="0"
     inkscape:window-maximized="0"
     inkscape:current-layer="g10" /><g
     id="g10"
     inkscape:groupmode="layer"
     inkscape:label="Web Puzzlers Icons Svg"
     transform="matrix(1.3333333,0,0,-1.3333333,0,589.38933)"><g
       id="g12"
       transform="matrix(1.5013234,0,0,1.5013234,-122.17102,-114.07566)"><g
         id="g14"
         clip-path="url(#clipPath18)"><g
           id="g20"
           transform="translate(138.6417,286.6185)"><path
             d="M 0,0 C -0.788,0.055 -1.568,0.081 -2.344,0.084 -2.601,0.086 -2.853,0.071 -3.108,0.067 -3.624,0.058 -4.139,0.048 -4.649,0.017 -4.714,0.013 -4.782,0.015 -4.847,0.011 -5.392,-0.025 -5.931,-0.077 -6.468,-0.138 -6.593,-0.153 -6.716,-0.171 -6.84,-0.187 c -0.535,-0.066 -1.066,-0.146 -1.593,-0.237 -0.137,-0.023 -0.274,-0.045 -0.41,-0.07 -0.545,-0.101 -1.088,-0.211 -1.623,-0.338 -0.047,-0.011 -0.093,-0.027 -0.14,-0.038 -0.629,-0.152 -1.25,-0.324 -1.865,-0.51 -0.095,-0.029 -0.194,-0.052 -0.289,-0.081 -0.709,-0.221 -1.406,-0.467 -2.093,-0.733 -0.03,-0.011 -0.061,-0.02 -0.091,-0.032 -0.58,-0.225 -1.153,-0.467 -1.717,-0.723 -0.763,-0.345 -1.511,-0.719 -2.242,-1.119 -0.023,-0.012 -0.045,-0.024 -0.068,-0.036 l -14.633,-8.042 c 0.754,0.414 1.524,0.8 2.311,1.156 0.593,0.269 1.197,0.519 1.807,0.755 0.687,0.265 1.384,0.511 2.092,0.732 0.099,0.031 0.202,0.054 0.301,0.084 0.612,0.185 1.229,0.357 1.854,0.508 0.582,0.14 1.17,0.265 1.763,0.376 0.136,0.025 0.274,0.046 0.41,0.07 0.527,0.091 1.058,0.17 1.593,0.237 0.124,0.016 0.247,0.034 0.372,0.048 0.601,0.069 1.208,0.119 1.82,0.156 0.509,0.031 1.024,0.041 1.54,0.049 0.255,0.005 0.508,0.019 0.764,0.018 0.776,-0.004 1.557,-0.029 2.344,-0.084 5.237,-0.366 10.257,-1.855 14.827,-4.22 0.653,-0.338 1.297,-0.693 1.931,-1.066 l 14.632,8.041 C 11.686,-2.303 5.985,-0.419 0,0"
             style="fill:#4b0124;fill-opacity:1;fill-rule:nonzero;stroke:none"
             id="path22"
             inkscape:connector-curvature="0" /></g><g
           id="g24"
           transform="translate(139.7143,355.9011)"><path
             d="M 0,0 14.633,8.041 64.99,4.52 50.358,-3.521 Z"
             style="fill:#4b0123;fill-opacity:1;fill-rule:nonzero;stroke:none"
             id="path26"
             inkscape:connector-curvature="0" /></g></g></g><g
       id="g28"
       transform="matrix(1.5013234,0,0,1.5013234,-122.17102,-114.07566)"><g
         id="g30"
         clip-path="url(#clipPath34)"><g
           id="g36"
           transform="translate(190.0719,352.3797)"><path
             d="m 0,0 14.633,8.041 c 7.935,-33.291 36.401,-59.676 69.869,-62.016 3.105,-0.218 6.161,-0.222 9.157,-0.024 L 79.027,-62.04 c -2.997,-0.198 -6.053,-0.194 -9.158,0.023 C 36.401,-59.676 7.936,-33.292 0,0"
             style="fill:#4b0124;fill-opacity:1;fill-rule:nonzero;stroke:none"
             id="path38"
             inkscape:connector-curvature="0" /></g><g
           id="g40"
           transform="translate(269.0985,290.3392)"><path
             d="m 0,0 14.633,8.041 c 3.643,0.24 7.197,0.778 10.641,1.591 L 10.641,1.591 C 7.198,0.777 3.643,0.24 0,0"
             style="fill:#4e0125;fill-opacity:1;fill-rule:nonzero;stroke:none"
             id="path42"
             inkscape:connector-curvature="0" /></g><g
           id="g44"
           transform="translate(279.7396,291.9301)"><path
             d="m 0,0 14.633,8.041 c 2.894,0.684 5.709,1.563 8.434,2.624 L 8.434,2.623 C 5.71,1.562 2.894,0.684 0,0"
             style="fill:#500126;fill-opacity:1;fill-rule:nonzero;stroke:none"
             id="path46"
             inkscape:connector-curvature="0" /></g><g
           id="g48"
           transform="translate(288.1736,294.5533)"><path
             d="m 0,0 14.633,8.041 c 2.541,0.99 5.003,2.138 7.375,3.434 L 7.376,3.434 C 5.003,2.138 2.541,0.99 0,0"
             style="fill:#530128;fill-opacity:1;fill-rule:nonzero;stroke:none"
             id="path50"
             inkscape:connector-curvature="0" /></g><g
           id="g52"
           transform="translate(295.5492,297.9875)"><path
             d="m 0,0 14.633,8.041 c 0.043,0.024 0.086,0.048 0.13,0.071 L 0.13,0.071 C 0.087,0.047 0.043,0.024 0,0"
             style="fill:#56012a;fill-opacity:1;fill-rule:nonzero;stroke:none"
             id="path54"
             inkscape:connector-curvature="0" /></g></g></g><g
       id="g56"
       transform="matrix(1.5013234,0,0,1.5013234,-122.17102,-114.07566)"><g
         id="g58"
         clip-path="url(#clipPath62)"><g
           id="g64"
           transform="translate(393.9748,338.1214)"><path
             d="m 0,0 2.78,-218.284 c 0.314,-24.636 -18.458,-43.278 -41.927,-41.637 l -211.765,14.808 -1.392,109.269 c -5.004,-2.278 -10.668,-3.368 -16.652,-2.949 -5.993,0.419 -11.687,2.303 -16.766,5.286 -12.529,7.338 -21.276,21.408 -21.474,36.964 -0.198,15.547 8.205,28.453 20.569,34.05 5.013,2.278 10.668,3.368 16.661,2.949 5.985,-0.419 11.686,-2.303 16.758,-5.286 l -1.052,82.61 50.357,-3.522 c 7.936,-33.291 36.401,-59.676 69.869,-62.016 33.477,-2.341 61.354,20.104 68.455,52.344 z"
             style="fill:#6d0136;fill-opacity:1;fill-rule:nonzero;stroke:none"
             id="path66"
             inkscape:connector-curvature="0" /></g><g
           id="g68"
           transform="translate(408.6075,346.1627)"><path
             d="m 0,0 -14.633,-8.041 2.78,-218.284 c 0.209,-16.422 -8.062,-30.18 -20.551,-37.043 l 14.633,8.041 c 12.489,6.863 20.76,20.622 20.551,37.043 z"
             style="fill:#490123;fill-opacity:1;fill-rule:nonzero;stroke:none"
             id="path70"
             inkscape:connector-curvature="0" /></g><g
           id="g72"
           transform="translate(328.3959,342.7072)"><path
             d="M 0,0 14.633,8.041 80.212,3.456 65.579,-4.586 Z"
             style="fill:#4b0123;fill-opacity:1;fill-rule:nonzero;stroke:none"
             id="path74"
             inkscape:connector-curvature="0" /></g></g></g><g
       id="g76"
       transform="matrix(1.5013234,0,0,1.5013234,-122.17102,-114.07566)"><g
         id="g78"
         clip-path="url(#clipPath82)"><g
           id="g84"
           transform="translate(227.1268,167.3674)"><path
             d="m 0,0 -21.357,1.493 c -2.238,0.157 -4.024,-1.617 -3.994,-3.966 l 0.363,-28.49 29.453,-2.06 -0.363,28.49 C 4.073,-2.184 2.238,-0.156 0,0"
             style="fill:#ffffff;fill-opacity:1;fill-rule:nonzero;stroke:none"
             id="path86"
             inkscape:connector-curvature="0" /></g><g
           id="g88"
           transform="translate(257.587,179.6191)"><path
             d="m 0,0 -19.161,1.34 c -2.137,0.149 -3.849,-1.551 -3.82,-3.786 l 0.548,-43.077 26.897,-1.881 -0.548,43.078 C 3.887,-2.092 2.137,-0.149 0,0"
             style="fill:#ffffff;fill-opacity:1;fill-rule:nonzero;stroke:none"
             id="path90"
             inkscape:connector-curvature="0" /></g><g
           id="g92"
           transform="translate(289.4959,192.5431)"><path
             d="m 0,0 -19.161,1.34 c -2.137,0.149 -3.84,-1.551 -3.812,-3.786 l 0.742,-58.247 26.897,-1.881 -0.742,58.247 C 3.896,-2.092 2.138,-0.149 0,0"
             style="fill:#ffffff;fill-opacity:1;fill-rule:nonzero;stroke:none"
             id="path94"
             inkscape:connector-curvature="0" /></g><g
           id="g96"
           transform="translate(320.961,206.7815)"><path
             d="m 0,0 -19.161,1.34 c -2.137,0.149 -3.84,-1.551 -3.812,-3.786 l 0.951,-74.7 26.898,-1.881 -0.952,74.7 C 3.896,-2.092 2.137,-0.149 0,0"
             style="fill:#ffffff;fill-opacity:1;fill-rule:nonzero;stroke:none"
             id="path98"
             inkscape:connector-curvature="0" /></g><g
           id="g100"
           transform="translate(336.7244,126.9933)"><path
             d="m 0,0 -10.888,0.761 -26.897,1.881 -4.777,0.334 -26.898,1.881 -5.213,0.365 -26.897,1.88 -3.562,0.25 -29.454,2.059 -9.253,0.647 c -1.71,0.12 -3.083,-1.244 -3.06,-3.038 0.023,-1.795 1.433,-3.353 3.143,-3.473 L 0.083,-6.511 c 1.718,-0.12 3.091,1.243 3.068,3.038 C 3.128,-1.678 1.718,-0.12 0,0"
             style="fill:#ffffff;fill-opacity:1;fill-rule:nonzero;stroke:none"
             id="path102"
             inkscape:connector-curvature="0" /></g><g
           id="g104"
           transform="translate(308.3826,260.1819)"><path
             d="m 0,0 c -0.271,0.019 -0.547,-0.008 -0.821,-0.088 l -25.622,-7.474 c -1.886,-0.554 -2.263,-3.138 -0.671,-4.533 l 1.753,-1.538 c 1.092,-0.955 1.34,-2.608 0.524,-3.694 -26.1,-35.008 -66.147,-42.132 -74.541,-43.277 -1.22,-0.161 -2.161,-1.247 -2.011,-2.558 0.207,-1.79 2.215,-2.229 2.215,-2.229 2.112,-0.283 4.195,-0.494 6.253,-0.638 46.468,-3.25 79.056,27.677 86.188,35.015 0.483,0.495 1.133,0.72 1.792,0.674 0.514,-0.036 1.033,-0.237 1.481,-0.604 l 3.927,-3.228 c 0.465,-0.379 0.974,-0.57 1.469,-0.604 1.352,-0.095 2.592,0.983 2.492,2.613 L 2.545,-2.671 C 2.45,-1.226 1.29,-0.09 0,0"
             style="fill:#ffffff;fill-opacity:1;fill-rule:nonzero;stroke:none"
             id="path106"
             inkscape:connector-curvature="0" /></g></g></g></g></svg>